# xmcd
#
# Track frame offsets:
#	150
#	7850
#	25695
#	33415
#	45686
#	55894
#	71605
#	82898
#	95226
#	106582
#	119143
#	134127
#	150383
#	163136
#	175454
#	187600
#
# Disc length: 2674 seconds
#
# Revision: 1
# Processed by: cddbd v1.5.2PL0 Copyright (c) Steve Scherf et al.
# Submitted via: audiograbber 1.83.01
#
DISCID=cc0a7010
DTITLE=Varoious Artists - Country Legends CD7 Honky Tonkin'
DYEAR=2005
DGENRE=Country
TTITLE0=Mickey Gilley - Thinkin' Of Me
TTITLE1=Kenny Rogers and The First Edition - Something's Burning
TTITLE2=Dolly Parton - Puppy Love
TTITLE3=Loretta Lynn - Me and Bobby McGee
TTITLE4=Faron Young - Hello Walls
TTITLE5=Rod Hart - CB Savage
TTITLE6=Conway Twitty - It's Only Make Believe
TTITLE7=Merle Haggard - Okie From Muskogee
TTITLE8=Patsy Cline - Just Out of Reach
TTITLE9=Willie Nelson - Country Willie
TTITLE10=Ed Bruce - You're The Best Break This Old Heart Ever Had
TTITLE11=Lynn Anderson - The Devil Went Down To Georgia
TTITLE12=Hank Williams - Honky Tonkin
TTITLE13=Billie Jo Spears - Look What They've Done To My Song Ma
TTITLE14=Jerry Wallace - Jealousy
TTITLE15=Donna Fargo - Daddy
EXTD=
EXTT0=
EXTT1=
EXTT2=
EXTT3=
EXTT4=
EXTT5=
EXTT6=
EXTT7=
EXTT8=
EXTT9=
EXTT10=
EXTT11=
EXTT12=
EXTT13=
EXTT14=
EXTT15=
PLAYORDER=
